<?xml version="1.0" standalone="no"?>
<!DOCTYPE svg PUBLIC "-//W3C//DTD SVG 20010904//EN"
 "http://www.w3.org/TR/2001/REC-SVG-20010904/DTD/svg10.dtd">
<svg version="1.0" xmlns="http://www.w3.org/2000/svg"
 width="105.000000pt" height="105.000000pt" viewBox="0 0 105.000000 105.000000"
 preserveAspectRatio="xMidYMid meet">

<g transform="translate(0.000000,105.000000) scale(0.100000,-0.100000)"
fill="#FF000A" stroke="none">
<path d="M440 1019 c-162 -28 -314 -161 -370 -323 -62 -181 -20 -375 111 -512
217 -225 569 -195 746 64 64 94 87 180 81 305 -6 123 -30 192 -96 280 -107
142 -297 217 -472 186z m202 -90 c68 -14 121 -45 180 -106 48 -50 102 -139 92
-154 -3 -5 -48 -9 -101 -9 l-95 0 -44 39 c-55 48 -115 65 -180 51 -65 -15 -98
-41 -128 -102 -22 -43 -26 -66 -26 -132 1 -155 71 -236 204 -236 65 0 133 32
163 79 39 58 35 61 -82 61 l-106 0 3 83 3 82 205 0 205 0 0 -95 c0 -85 -3
-102 -31 -160 -57 -121 -147 -186 -287 -211 -86 -14 -200 1 -273 36 -151 74
-244 262 -215 439 40 244 259 388 513 335z"/>
</g>
</svg>
