<?xml version="1.0" standalone="no"?>
<!DOCTYPE svg PUBLIC "-//W3C//DTD SVG 20010904//EN"
 "http://www.w3.org/TR/2001/REC-SVG-20010904/DTD/svg10.dtd">
<svg version="1.0" xmlns="http://www.w3.org/2000/svg"
 width="320.000000pt" height="321.000000pt" viewBox="0 0 320.000000 321.000000"
 preserveAspectRatio="xMidYMid meet">

<g transform="translate(0.000000,321.000000) scale(0.100000,-0.100000)"
fill="#979797" stroke="none">
<path d="M1455 2889 c-167 -23 -345 -85 -486 -170 -115 -69 -173 -116 -276
-222 -358 -371 -459 -923 -254 -1397 154 -356 475 -634 850 -734 754 -202
1508 304 1612 1082 15 114 5 331 -20 442 -114 499 -510 885 -1011 985 -95 19
-324 27 -415 14z m253 -716 c42 -20 70 -60 85 -123 6 -27 15 -50 20 -50 4 0
24 11 45 24 49 32 91 40 141 26 118 -31 166 -166 96 -271 -29 -45 -26 -59 12
-59 85 0 163 -84 163 -175 0 -91 -78 -175 -163 -175 -34 0 -35 -18 -2 -66 29
-43 34 -127 10 -174 -47 -91 -187 -119 -265 -54 -16 14 -34 23 -38 20 -5 -3
-12 -26 -14 -51 -10 -85 -80 -147 -167 -148 -91 -1 -151 48 -174 143 -13 55
-25 61 -64 30 -82 -64 -208 -35 -258 60 -27 51 -22 127 11 175 30 45 25 65
-16 65 -89 0 -172 106 -155 198 14 77 67 128 152 147 45 9 47 18 18 60 -48 72
-45 151 8 212 62 70 151 83 229 34 25 -16 50 -26 55 -22 6 3 13 26 16 50 15
119 137 178 255 124z"/>
<path d="M1603 2052 c-6 -4 -14 -29 -18 -55 -13 -85 -75 -137 -163 -137 -36 0
-59 7 -87 26 -70 47 -106 16 -61 -53 36 -54 42 -95 22 -148 -21 -54 -64 -92
-114 -100 -48 -8 -66 -18 -71 -40 -4 -25 25 -45 64 -45 41 0 93 -36 116 -80
29 -53 25 -108 -13 -164 -24 -37 -29 -52 -21 -65 16 -25 41 -25 73 3 97 81
260 8 260 -117 0 -14 7 -30 16 -38 25 -21 48 2 61 61 12 55 40 92 87 117 41
21 123 13 163 -16 34 -25 60 -25 77 1 8 13 6 22 -11 40 -87 92 -33 246 92 264
22 4 45 13 52 22 18 22 -2 52 -35 52 -70 1 -139 59 -156 133 -8 35 8 97 35
131 23 29 22 54 -2 69 -11 7 -26 3 -56 -17 -77 -51 -157 -44 -212 19 -17 19
-33 51 -36 72 -10 62 -31 85 -62 65z m112 -253 c49 -12 118 -66 140 -109 62
-120 18 -262 -98 -316 -162 -75 -331 31 -330 206 1 104 67 188 173 221 37 11
66 10 115 -2z"/>
<path d="M1607 1659 c-21 -12 -47 -61 -47 -88 0 -12 13 -35 28 -52 40 -44 95
-44 135 1 24 27 28 39 23 69 -10 64 -84 102 -139 70z"/>
</g>
</svg>
